<?xml version="1.0" encoding="utf-8"?>
<!-- Generator: Adobe Illustrator 24.0.0, SVG Export Plug-In . SVG Version: 6.00 Build 0)  -->
<svg version="1.1" id="Layer_1" xmlns="http://www.w3.org/2000/svg" xmlns:xlink="http://www.w3.org/1999/xlink" x="0px" y="0px"
	 viewBox="0 0 160 77" style="enable-background:new 0 0 160 77;" xml:space="preserve">
<style type="text/css">
	.st0{enable-background:new    ;}
</style>
<g id="Group_5" transform="translate(-185.05 -768.576)">
	<g class="st0">
		<path d="M214.2,822.1c0,0.1,0,0.2,0,0.3s0,0.3-0.1,0.5h-3l-2.3-3.6c-0.1-0.2-0.2-0.3-0.3-0.3l-0.4,0.4v2.5c0.2,0.1,0.5,0.1,1,0.1
			c0,0.1,0,0.1,0,0.3c0,0.1,0,0.3-0.1,0.5h-4.1c0-0.1,0-0.2,0-0.3s0-0.3,0.1-0.5c0.3,0,0.5-0.1,0.7-0.2c0.1-0.1,0.2-0.3,0.2-0.6
			v-6.5c-0.2-0.1-0.6-0.2-1-0.2c0-0.1,0-0.2,0-0.3c0-0.1,0-0.3,0.1-0.5h4.1c0,0.1,0,0.2,0,0.3c0,0.1,0,0.3-0.1,0.5
			c-0.3,0-0.5,0.1-0.7,0.2c-0.1,0.1-0.2,0.3-0.2,0.6v2.7l3.6-3.4c-0.2-0.1-0.5-0.2-1-0.2c0-0.1,0-0.2,0-0.3s0-0.3,0.1-0.4h3.4
			c0,0.4,0,0.6,0,0.8c-0.6,0-1.1,0.2-1.6,0.7l-2.4,2.3c0.3,0.1,0.6,0.4,0.9,0.9l1.8,2.8c0.2,0.3,0.4,0.6,0.6,0.7
			S213.8,822.1,214.2,822.1z"/>
		<path d="M229.8,822.1c0,0.1,0,0.1,0,0.3c0,0.1,0,0.3-0.1,0.5h-3.9c0-0.1,0-0.2,0-0.3s0-0.3,0.1-0.5c0.3,0,0.5-0.1,0.7-0.2
			c0.1-0.1,0.2-0.3,0.2-0.6v-3.6c-0.1,0-0.3,0-0.5,0c-0.2,0-0.3,0-0.5,0c0-0.3,0.1-0.6,0.1-0.8c0.9-0.3,1.9-0.5,3-0.5v5.6
			C229.2,822.1,229.5,822.1,229.8,822.1z M229.1,814.6c0,0.3-0.1,0.6-0.4,0.9c-0.2,0.2-0.5,0.4-0.9,0.4c-0.3,0-0.6-0.1-0.9-0.4
			c-0.2-0.2-0.4-0.5-0.4-0.9c0-0.3,0.1-0.6,0.4-0.9c0.2-0.2,0.5-0.4,0.9-0.4c0.3,0,0.6,0.1,0.9,0.4C229,814,229.1,814.3,229.1,814.6
			z"/>
		<path d="M243.5,823.1c-0.6,0-1-0.2-1.4-0.5c-0.4-0.3-0.5-0.9-0.5-1.5v-3.4c-0.3,0-0.5-0.1-0.9-0.1c0-0.1,0-0.2,0-0.3
			c0-0.1,0-0.3,0-0.4c0.2-0.1,0.5-0.2,0.8-0.3l1.7-2.2l0.4,0.1v2.1c0.6,0,1.1-0.1,1.7-0.1c0,0.5,0,0.8-0.1,1.1h-1.5l0,3.5
			c0,0.3,0,0.4,0.1,0.5c0.1,0.1,0.3,0.2,0.5,0.2c0.2,0,0.5-0.1,0.8-0.3l0.4,0.5C245,822.7,244.3,823.1,243.5,823.1z"/>
		<path d="M259.4,823.1c-0.8,0-1.5-0.3-2.1-0.8c-0.6-0.6-0.9-1.4-0.9-2.4c0-1.1,0.4-1.9,1.1-2.6c0.7-0.6,1.6-1,2.6-1
			c0.6,0,1.2,0.1,1.8,0.4c0,0.5-0.1,1.2-0.2,2c-0.2,0-0.3,0-0.5-0.1c0-0.4-0.2-0.7-0.4-1c-0.2-0.2-0.5-0.4-0.8-0.4
			c-0.9,0-1.3,0.7-1.3,2.2c0,1.5,0.5,2.2,1.4,2.2c0.5,0,1.1-0.1,1.8-0.4l0.3,0.5c-0.4,0.4-0.8,0.7-1.3,0.9
			C260.4,823,259.9,823.1,259.4,823.1z"/>
		<path d="M280.2,818.5v3.5c0.4,0.1,0.7,0.2,0.9,0.2c0,0.1,0,0.2,0,0.3c0,0.1,0,0.3-0.1,0.5h-3.8c0-0.1,0-0.2,0-0.3
			c0-0.1,0-0.3,0.1-0.5c0.2,0,0.4-0.1,0.5-0.2s0.2-0.3,0.2-0.6v-2.5c0-0.4-0.1-0.6-0.3-0.8c-0.2-0.2-0.4-0.3-0.7-0.3
			c-0.5,0-1,0.4-1.3,1.3v3c0.2,0.1,0.5,0.1,0.8,0.1c0,0.1,0,0.1,0,0.3c0,0.1,0,0.3-0.1,0.5h-3.9c0-0.1,0-0.2,0-0.3s0-0.3,0.1-0.5
			c0.3,0,0.5-0.1,0.7-0.2c0.2-0.1,0.2-0.3,0.2-0.6v-7.1c-0.1,0-0.2,0-0.4,0s-0.3,0-0.5,0c0-0.3,0.1-0.6,0.1-0.8
			c0.9-0.3,1.9-0.5,3-0.5v4.7c0.5-0.8,1.2-1.3,2.2-1.3c0.7,0,1.2,0.2,1.6,0.6C280,817.3,280.2,817.8,280.2,818.5z"/>
		<path d="M294.4,819.6L294.4,819.6c0,1.5,0.5,2.2,1.6,2.2c0.6,0,1.2-0.1,1.9-0.4l0.3,0.5c-0.8,0.8-1.8,1.2-2.9,1.2
			c-0.8,0-1.5-0.3-2.2-0.8c-0.3-0.3-0.6-0.6-0.8-1s-0.3-0.9-0.3-1.4c0-1.1,0.3-1.9,1-2.6s1.6-1,2.6-1c0.7,0,1.3,0.2,1.8,0.6
			c0.6,0.4,0.9,1.1,0.9,2.2c-0.1,0.2-0.2,0.4-0.3,0.6H294.4z M295.5,817.3c-0.6,0-1,0.5-1.1,1.5l1.1-0.1l0.6,0
			C296.1,817.8,295.9,817.3,295.5,817.3z"/>
		<path d="M316.7,818.5v3.5c0.4,0.1,0.7,0.2,0.9,0.2c0,0.1,0,0.2,0,0.3c0,0.1,0,0.3-0.1,0.5h-3.8c0-0.1,0-0.2,0-0.3
			c0-0.1,0-0.3,0.1-0.5c0.2,0,0.4-0.1,0.5-0.2s0.2-0.3,0.2-0.6v-2.5c0-0.4-0.1-0.6-0.3-0.8c-0.2-0.2-0.4-0.3-0.7-0.3
			c-0.5,0-1,0.4-1.3,1.3v3c0.2,0.1,0.5,0.1,0.8,0.1c0,0.1,0,0.1,0,0.3c0,0.1,0,0.3-0.1,0.5h-3.9c0-0.1,0-0.2,0-0.3s0-0.3,0.1-0.5
			c0.3,0,0.5-0.1,0.7-0.2c0.2-0.1,0.2-0.3,0.2-0.6v-3.6c-0.1,0-0.3,0-0.5,0c-0.2,0-0.3,0-0.5,0c0-0.3,0.1-0.6,0.1-0.8
			c0.8-0.3,1.8-0.5,2.8-0.5c0.1,0.5,0.1,0.9,0.2,1.3c0.4-0.9,1.2-1.3,2.2-1.3c0.7,0,1.2,0.2,1.6,0.6
			C316.5,817.3,316.7,817.8,316.7,818.5z"/>
	</g>
	<g class="st0">
		<g>
			<path d="M185.2,812.9l-0.1-0.5c1.5-0.8,2.5-1.8,3-2.8c0.5-1,0.7-2.3,0.7-3.9v-20.2c-0.7-0.3-1.6-0.5-2.5-0.6c0-0.4,0-0.6,0.1-0.8
				h6.4c0,0.4,0,0.6-0.1,0.8c-0.9,0.1-1.5,0.3-1.8,0.5c-0.3,0.2-0.5,0.6-0.5,1.1v19.2c0,2-0.4,3.6-1.2,4.7S187.1,812.3,185.2,812.9z
				"/>
		</g>
		<g>
			<path d="M202.6,789c2.2,0,4,0.8,5.3,2.4s1.9,3.6,1.9,6.2c0,2.5-0.7,4.6-2,6.2c-1.3,1.6-3.1,2.4-5.4,2.4c-2.3,0-4-0.8-5.3-2.4
				s-1.9-3.6-1.9-6.2s0.7-4.6,2-6.2C198.6,789.8,200.4,789,202.6,789z M198.7,803c0.9,1.3,2.3,2,4,2s3.1-0.6,3.9-1.9
				c0.9-1.3,1.3-3,1.3-5.1c0-2.4-0.5-4.4-1.4-5.8c-0.9-1.4-2.3-2.1-4-2.1s-3.1,0.7-3.9,2.1c-0.9,1.4-1.3,3.2-1.3,5.5
				C197.3,799.9,197.8,801.7,198.7,803z"/>
		</g>
		<g>
			<path d="M237.4,794.3v10c0.8,0.3,1.6,0.5,2.6,0.6c0,0.3,0,0.5-0.1,0.8h-6.7c0-0.2,0-0.5,0-0.8c0.9-0.1,1.5-0.3,1.9-0.5
				c0.3-0.2,0.5-0.6,0.5-1.2v-8.9c0-1.2-0.3-2.2-0.9-2.9c-0.6-0.7-1.4-1-2.5-1c-2.3,0-4,1.3-5.1,3.9v9.9c0.8,0.3,1.6,0.5,2.6,0.6
				c0,0.3,0,0.5-0.1,0.8H223c0-0.2,0-0.5,0-0.8c0.9-0.1,1.5-0.3,1.9-0.5c0.3-0.2,0.5-0.6,0.5-1.2v-8.9c0-1.2-0.3-2.2-0.9-2.9
				s-1.4-1-2.5-1c-2.3,0-4,1.3-5,3.8v10c0.7,0.3,1.6,0.5,2.6,0.6c0,0.3,0,0.6-0.1,0.8h-6.7c0-0.2,0-0.5,0-0.8
				c0.9-0.1,1.6-0.3,1.9-0.5c0.3-0.2,0.5-0.6,0.5-1.2v-12c-0.7,0-1.2,0-1.6,0c-0.4,0-0.7,0-0.9,0c0-0.2,0-0.5,0.1-0.7
				c1.6-0.6,2.9-1.1,4-1.3c0.1,0.9,0.2,2.1,0.3,3.6c1.2-2.5,3.1-3.8,5.5-3.8c1.2,0,2.1,0.3,3,1c0.8,0.7,1.3,1.7,1.6,3
				c0.6-1.2,1.3-2.2,2.3-3c1-0.7,2.1-1.1,3.4-1.1c1.3,0,2.4,0.5,3.3,1.3C237,791.3,237.4,792.6,237.4,794.3z"/>
		</g>
		<g>
			<path d="M253.6,806.2c-0.5,0-1-0.2-1.4-0.5c-0.4-0.3-0.6-0.8-0.7-1.5c-1.2,1.3-2.6,2-4,2c-1.5,0-2.6-0.4-3.5-1.3
				s-1.3-1.9-1.3-3.3c0-1.3,0.5-2.4,1.3-3.3c0.9-0.9,2.3-1.5,4.3-1.9l3.2-0.8v-1.7c0-1.1-0.2-2-0.6-2.5c-0.4-0.6-1.3-0.8-2.6-0.8
				c-1.3,0-2.7,0.3-4.4,0.9l-0.3-0.5c1.7-1.3,3.5-2,5.6-2c1.3,0,2.3,0.4,3.1,1.2c0.8,0.8,1.1,1.9,1.1,3.3v9.1c0,0.7,0.1,1.2,0.3,1.5
				c0.2,0.3,0.4,0.5,0.8,0.5c0.4,0,0.9-0.1,1.4-0.2l0.1,0.3C255.2,805.7,254.5,806.2,253.6,806.2z M244.5,801.6c0,1,0.3,1.7,0.9,2.3
				c0.6,0.5,1.4,0.8,2.3,0.8c1.5,0,2.7-0.5,3.7-1.5v-6.4l-3,0.8C245.8,798.1,244.5,799.5,244.5,801.6z"/>
		</g>
		<g>
			<path d="M262.6,793.4v0.5c0.6-1.5,1.4-2.6,2.6-3.5s2.4-1.3,3.7-1.3c0.1,0.2,0.1,0.4,0.1,0.8c0,0.3,0,0.7-0.1,1.1
				c-1.9,0-3.6,0.7-4.9,2.1c-0.8,0.8-1.2,1.9-1.4,3.1v8c1.1,0.5,2.4,0.7,3.9,0.8c0,0.3,0,0.6-0.1,0.8h-8.1c0-0.2,0-0.5,0-0.8
				c0.9-0.1,1.6-0.3,1.9-0.5c0.3-0.2,0.5-0.6,0.5-1.2v-12c-0.7,0-1.2,0-1.6,0c-0.4,0-0.7,0-0.9,0c0-0.2,0-0.5,0.1-0.7
				c1.6-0.6,2.9-1.1,4-1.3C262.5,790.4,262.6,791.7,262.6,793.4z"/>
		</g>
		<g>
			<path d="M272.9,803.3v-12c-0.7,0-1.2,0-1.6,0c-0.4,0-0.7,0-0.9,0c0-0.2,0-0.5,0.1-0.7c1.5-0.6,2.9-1,4.2-1.3v15.1
				c0.7,0.3,1.6,0.5,2.6,0.6c0,0.3,0,0.6-0.1,0.8h-6.7c0-0.2,0-0.5,0-0.8c0.9-0.1,1.6-0.3,1.9-0.5
				C272.7,804.2,272.9,803.8,272.9,803.3z M275.3,783.9c0,0.4-0.2,0.8-0.5,1.2c-0.3,0.3-0.7,0.5-1.1,0.5c-0.4,0-0.8-0.2-1.1-0.5
				c-0.3-0.3-0.5-0.7-0.5-1.2s0.2-0.8,0.5-1.1c0.3-0.3,0.7-0.5,1.1-0.5c0.4,0,0.8,0.2,1.1,0.5C275.2,783.1,275.3,783.5,275.3,783.9z
				"/>
		</g>
		<g>
			<path d="M287.6,789c2.2,0,4,0.8,5.3,2.4s1.9,3.6,1.9,6.2c0,2.5-0.7,4.6-2,6.2c-1.3,1.6-3.1,2.4-5.4,2.4s-4-0.8-5.3-2.4
				c-1.3-1.6-1.9-3.6-1.9-6.2s0.7-4.6,2-6.2C283.6,789.8,285.4,789,287.6,789z M283.7,803c0.9,1.3,2.3,2,4,2s3.1-0.6,3.9-1.9
				c0.9-1.3,1.3-3,1.3-5.1c0-2.4-0.5-4.4-1.4-5.8c-0.9-1.4-2.3-2.1-4-2.1c-1.7,0-3.1,0.7-3.9,2.1s-1.3,3.2-1.3,5.5
				C282.2,799.9,282.7,801.7,283.7,803z"/>
		</g>
		<g>
			<path d="M312.1,794.3v10c0.8,0.3,1.6,0.5,2.6,0.6c0,0.3,0,0.5-0.1,0.8h-6.7c0-0.2,0-0.5,0-0.8c0.9-0.1,1.5-0.3,1.9-0.5
				c0.3-0.2,0.5-0.6,0.5-1.2v-8.9c0-1.2-0.3-2.2-0.9-2.9c-0.6-0.7-1.4-1-2.5-1c-2.3,0-4,1.3-5,3.8v10c0.7,0.3,1.6,0.5,2.6,0.6
				c0,0.3,0,0.6-0.1,0.8h-6.7c0-0.2,0-0.5,0-0.8c0.9-0.1,1.6-0.3,1.9-0.5c0.3-0.2,0.5-0.6,0.5-1.2v-12c-0.7,0-1.2,0-1.6,0
				c-0.4,0-0.7,0-0.9,0c0-0.2,0-0.5,0.1-0.7c1.6-0.6,2.9-1.1,4-1.3c0.1,0.9,0.2,2.1,0.3,3.6c1.2-2.5,3.1-3.8,5.5-3.8
				c1.3,0,2.5,0.5,3.3,1.3C311.7,791.3,312.1,792.6,312.1,794.3z"/>
		</g>
		<g>
			<path d="M322,777.4h2.5l-0.6,5.8h-1.3L322,777.4z"/>
		</g>
		<g>
			<path d="M337.2,805.1c1.3,0,2.3-0.3,3.1-0.8c0.8-0.6,1.1-1.3,1.1-2.1c0-0.9-0.5-1.6-1.4-2.3s-1.9-1.2-3-1.5c-1.1-0.4-2.1-1-3-1.8
				s-1.4-1.9-1.4-3.2c0-1.3,0.5-2.4,1.6-3.1c1.1-0.8,2.3-1.1,3.7-1.1c1.4,0,2.8,0.2,4.2,0.7c0,0.4,0,0.9,0,1.5
				c0,0.7-0.1,1.4-0.2,2.4c-0.2,0-0.4,0-0.6-0.1c0-0.2,0-0.4,0-0.6c0-1-0.3-1.7-0.9-2.2c-0.6-0.4-1.5-0.7-2.6-0.7s-2,0.3-2.7,0.8
				c-0.7,0.6-1,1.3-1,2.1c0,0.8,0.3,1.5,0.9,2.1c0.6,0.6,1.4,1,2.2,1.4s1.8,0.8,2.6,1.2c0.9,0.4,1.6,0.9,2.3,1.6
				c0.6,0.7,0.9,1.5,0.9,2.3c0,1.5-0.6,2.6-1.8,3.4c-1.2,0.8-2.7,1.2-4.4,1.2s-3.3-0.3-4.9-0.8c0-0.6-0.1-1.2-0.1-1.9
				c0-0.7,0.1-1.5,0.3-2.2c0.2,0,0.4,0,0.5,0c0,0.2,0,0.3,0,0.5c0,1.1,0.4,2,1.2,2.5C334.8,804.9,335.9,805.1,337.2,805.1z"/>
		</g>
	</g>
</g>
</svg>
