<?xml version="1.0" encoding="utf-8"?>
<!-- Generator: Adobe Illustrator 24.0.0, SVG Export Plug-In . SVG Version: 6.00 Build 0)  -->
<svg version="1.1" id="Layer_1" xmlns="http://www.w3.org/2000/svg" xmlns:xlink="http://www.w3.org/1999/xlink" x="0px" y="0px"
	 viewBox="0 0 120 57" style="enable-background:new 0 0 120 57;" xml:space="preserve">
<style type="text/css">
	.st0{enable-background:new    ;}
	.st1{fill:#FFFFFF;}
</style>
<g id="Group_45" transform="translate(-185.093 -663.096)">
	<g class="st0">
		<path class="st1" d="M210.6,703.1c0,0,0,0.1,0,0.2c0,0.1,0,0.2-0.1,0.4h-2.1l-1.6-2.5c-0.1-0.1-0.2-0.2-0.3-0.2l-0.3,0.3v1.8
			c0.2,0.1,0.4,0.1,0.7,0.1c0,0,0,0.1,0,0.2c0,0.1,0,0.2-0.1,0.4H204c0,0,0-0.1,0-0.2s0-0.2,0.1-0.3c0.2,0,0.4-0.1,0.5-0.2
			c0.1-0.1,0.2-0.2,0.2-0.4v-4.7c-0.2-0.1-0.4-0.1-0.7-0.1c0,0,0-0.1,0-0.2s0-0.2,0-0.4h2.9c0,0.1,0,0.1,0,0.2s0,0.2,0,0.3
			c-0.2,0-0.4,0.1-0.5,0.2c-0.1,0.1-0.2,0.2-0.2,0.4v2l2.5-2.5c-0.2-0.1-0.4-0.1-0.7-0.1c0-0.1,0-0.1,0-0.2c0-0.1,0-0.2,0.1-0.3h2.4
			c0,0.3,0,0.4,0,0.5c-0.4,0-0.8,0.2-1.1,0.5l-1.7,1.6c0.2,0.1,0.4,0.3,0.7,0.6l1.3,2c0.2,0.2,0.3,0.4,0.4,0.5
			C210.2,703,210.4,703.1,210.6,703.1z"/>
		<path class="st1" d="M221.8,703.1c0,0,0,0.1,0,0.2c0,0.1,0,0.2,0,0.4H219c0-0.1,0-0.1,0-0.2c0-0.1,0-0.2,0-0.3
			c0.2,0,0.4-0.1,0.5-0.2c0.1-0.1,0.2-0.2,0.2-0.4v-2.6c-0.1,0-0.2,0-0.3,0c-0.1,0-0.2,0-0.3,0c0-0.2,0-0.4,0.1-0.6
			c0.6-0.2,1.4-0.3,2.1-0.4v4C221.4,703,221.5,703.1,221.8,703.1z M221.3,697.7c0,0.2-0.1,0.5-0.3,0.6c-0.2,0.2-0.4,0.3-0.6,0.3
			c-0.2,0-0.5-0.1-0.6-0.3s-0.3-0.4-0.3-0.6s0.1-0.5,0.3-0.6s0.4-0.3,0.6-0.3c0.2,0,0.4,0.1,0.6,0.3
			C221.2,697.2,221.3,697.4,221.3,697.7z"/>
		<path class="st1" d="M231.6,703.8c-0.4,0-0.7-0.1-1-0.4s-0.4-0.6-0.4-1.1v-2.5c-0.2,0-0.4,0-0.6,0c0-0.1,0-0.1,0-0.2s0-0.2,0-0.3
			c0.1-0.1,0.3-0.1,0.6-0.2l1.2-1.6l0.3,0.1v1.5c0.4,0,0.8,0,1.2-0.1c0,0.3,0,0.6-0.1,0.8h-1.1l0,2.5c0,0.2,0,0.3,0.1,0.4
			s0.2,0.1,0.4,0.1s0.4-0.1,0.6-0.2l0.3,0.3C232.6,703.5,232.1,703.8,231.6,703.8z"/>
		<path class="st1" d="M242.9,703.8c-0.6,0-1.1-0.2-1.5-0.6s-0.7-1-0.7-1.7s0.3-1.4,0.8-1.8c0.5-0.5,1.1-0.7,1.9-0.7
			c0.4,0,0.9,0.1,1.3,0.3c0,0.4-0.1,0.8-0.2,1.5c-0.1,0-0.3,0-0.4,0c0-0.3-0.1-0.5-0.3-0.7c-0.1-0.2-0.3-0.3-0.5-0.3
			c-0.6,0-0.9,0.5-0.9,1.6c0,1.1,0.3,1.6,1,1.6c0.4,0,0.8-0.1,1.3-0.3l0.2,0.4c-0.3,0.3-0.6,0.5-0.9,0.6
			C243.6,703.7,243.3,703.8,242.9,703.8z"/>
		<path class="st1" d="M257.8,700.5v2.5c0.3,0.1,0.5,0.1,0.7,0.1c0,0,0,0.1,0,0.2c0,0.1,0,0.2,0,0.4h-2.7c0-0.1,0-0.1,0-0.2
			s0-0.2,0-0.3c0.2,0,0.3-0.1,0.4-0.2c0.1-0.1,0.1-0.2,0.1-0.4v-1.8c0-0.3-0.1-0.5-0.2-0.6c-0.1-0.1-0.3-0.2-0.5-0.2
			c-0.4,0-0.7,0.3-0.9,0.9v2.2c0.2,0.1,0.3,0.1,0.6,0.1c0,0,0,0.1,0,0.2c0,0.1,0,0.2,0,0.4h-2.8c0-0.1,0-0.1,0-0.2
			c0-0.1,0-0.2,0-0.3c0.2,0,0.4-0.1,0.5-0.2c0.1-0.1,0.2-0.2,0.2-0.4v-5.1c-0.1,0-0.2,0-0.3,0s-0.2,0-0.4,0c0-0.2,0-0.4,0.1-0.6
			c0.6-0.2,1.4-0.4,2.1-0.4v3.4c0.3-0.6,0.8-0.9,1.5-0.9c0.5,0,0.8,0.1,1.1,0.4C257.7,699.6,257.8,700,257.8,700.5z"/>
		<path class="st1" d="M267.9,701.3L267.9,701.3c0,1.1,0.4,1.6,1.2,1.6c0.4,0,0.9-0.1,1.4-0.3l0.2,0.4c-0.6,0.6-1.3,0.9-2.1,0.9
			c-0.6,0-1.1-0.2-1.6-0.6c-0.2-0.2-0.4-0.4-0.6-0.7c-0.1-0.3-0.2-0.6-0.2-1c0-0.8,0.3-1.4,0.8-1.9c0.5-0.5,1.1-0.7,1.8-0.7
			c0.5,0,0.9,0.1,1.3,0.4c0.4,0.3,0.6,0.8,0.6,1.6c-0.1,0.2-0.1,0.3-0.2,0.4H267.9z M268.7,699.6c-0.4,0-0.7,0.4-0.8,1.1l0.8-0.1
			l0.5,0C269.1,700,269,699.6,268.7,699.6z"/>
		<path class="st1" d="M283.8,700.5v2.5c0.3,0.1,0.5,0.1,0.7,0.1c0,0,0,0.1,0,0.2c0,0.1,0,0.2,0,0.4h-2.7c0-0.1,0-0.1,0-0.2
			s0-0.2,0-0.3c0.2,0,0.3-0.1,0.4-0.2c0.1-0.1,0.1-0.2,0.1-0.4v-1.8c0-0.3-0.1-0.5-0.2-0.6c-0.1-0.1-0.3-0.2-0.5-0.2
			c-0.4,0-0.7,0.3-0.9,0.9v2.2c0.2,0.1,0.3,0.1,0.6,0.1c0,0,0,0.1,0,0.2c0,0.1,0,0.2,0,0.4h-2.8c0-0.1,0-0.1,0-0.2
			c0-0.1,0-0.2,0-0.3c0.2,0,0.4-0.1,0.5-0.2c0.1-0.1,0.2-0.2,0.2-0.4v-2.6c-0.1,0-0.2,0-0.3,0c-0.1,0-0.2,0-0.3,0
			c0-0.2,0-0.4,0.1-0.5c0.6-0.2,1.3-0.3,2-0.4c0.1,0.3,0.1,0.6,0.1,0.9c0.3-0.6,0.8-1,1.6-1c0.5,0,0.8,0.1,1.1,0.4
			C283.7,699.6,283.8,700,283.8,700.5z"/>
	</g>
	<g class="st0">
		<path class="st1" d="M185.2,696.1l-0.1-0.4c1.2-0.6,1.9-1.3,2.2-2.1c0.3-0.8,0.5-1.7,0.5-2.9v-15.2c-0.6-0.2-1.2-0.4-1.9-0.4
			c0-0.3,0-0.5,0.1-0.6h4.8c0,0.3,0,0.5-0.1,0.6c-0.6,0.1-1.1,0.2-1.3,0.4c-0.2,0.2-0.4,0.4-0.4,0.8v14.4c0,1.5-0.3,2.7-0.9,3.5
			S186.6,695.6,185.2,696.1z"/>
		<path class="st1" d="M198.3,678.2c1.7,0,3,0.6,4,1.8c1,1.2,1.5,2.7,1.5,4.6s-0.5,3.5-1.5,4.7s-2.3,1.8-4,1.8c-1.7,0-3-0.6-4-1.8
			c-0.9-1.2-1.4-2.7-1.4-4.6c0-1.9,0.5-3.5,1.5-4.7S196.6,678.2,198.3,678.2z M195.3,688.7c0.7,1,1.7,1.5,3,1.5
			c1.3,0,2.3-0.5,2.9-1.4c0.6-1,1-2.2,1-3.8c0-1.8-0.4-3.3-1.1-4.3s-1.7-1.6-3-1.6s-2.3,0.5-3,1.5c-0.7,1-1,2.4-1,4.1
			C194.3,686.3,194.6,687.7,195.3,688.7z"/>
		<path class="st1" d="M224.4,682.2v7.5c0.6,0.3,1.2,0.4,1.9,0.5c0,0.2,0,0.4-0.1,0.6h-5c0-0.2,0-0.4,0-0.6c0.7-0.1,1.2-0.2,1.4-0.4
			c0.3-0.2,0.4-0.5,0.4-0.9v-6.7c0-0.9-0.2-1.7-0.7-2.1c-0.4-0.5-1.1-0.7-1.8-0.7c-1.7,0-3,1-3.8,2.9v7.4c0.6,0.3,1.2,0.4,1.9,0.5
			c0,0.2,0,0.4-0.1,0.6h-5c0-0.2,0-0.4,0-0.6c0.7-0.1,1.2-0.2,1.4-0.4c0.3-0.2,0.4-0.5,0.4-0.9v-6.7c0-0.9-0.2-1.7-0.7-2.1
			c-0.4-0.5-1.1-0.7-1.8-0.7c-1.7,0-3,0.9-3.8,2.8v7.5c0.6,0.3,1.2,0.4,1.9,0.5c0,0.3,0,0.5-0.1,0.6h-5c0-0.2,0-0.4,0-0.6
			c0.7-0.1,1.2-0.2,1.4-0.4c0.3-0.2,0.4-0.5,0.4-0.9v-9c-0.5,0-0.9,0-1.2,0s-0.5,0-0.7,0c0-0.2,0-0.4,0.1-0.5c1.2-0.5,2.2-0.8,3-1
			c0.1,0.7,0.2,1.6,0.2,2.7c0.9-1.9,2.3-2.8,4.2-2.8c0.9,0,1.6,0.3,2.2,0.8c0.6,0.5,1,1.3,1.2,2.3c0.4-0.9,1-1.7,1.7-2.2
			c0.7-0.5,1.6-0.8,2.6-0.8s1.8,0.3,2.5,1C224,679.9,224.4,680.9,224.4,682.2z"/>
		<path class="st1" d="M236.5,691.1c-0.4,0-0.7-0.1-1-0.4c-0.3-0.3-0.5-0.6-0.5-1.1c-0.9,1-1.9,1.5-3,1.5s-2-0.3-2.6-0.9
			c-0.7-0.6-1-1.4-1-2.5s0.3-1.8,1-2.5c0.7-0.6,1.7-1.1,3.2-1.5l2.4-0.6v-1.3c0-0.8-0.2-1.5-0.5-1.9s-1-0.6-1.9-0.6
			c-1,0-2.1,0.2-3.3,0.7l-0.2-0.4c1.3-1,2.7-1.5,4.2-1.5c1,0,1.7,0.3,2.3,0.9c0.6,0.6,0.9,1.4,0.9,2.5v6.8c0,0.5,0.1,0.9,0.2,1.1
			c0.1,0.2,0.3,0.3,0.6,0.3s0.6,0,1.1-0.1l0.1,0.2C237.7,690.7,237.1,691.1,236.5,691.1z M229.7,687.6c0,0.7,0.2,1.3,0.6,1.7
			c0.4,0.4,1,0.6,1.8,0.6c1.1,0,2-0.4,2.8-1.2v-4.8l-2.2,0.6C230.7,685,229.7,686,229.7,687.6z"/>
		<path class="st1" d="M243.2,681.5v0.4c0.4-1.1,1.1-2,2-2.6c0.9-0.7,1.8-1,2.8-1c0.1,0.1,0.1,0.3,0.1,0.6c0,0.2,0,0.5-0.1,0.8
			c-1.5,0-2.7,0.5-3.6,1.6c-0.6,0.6-0.9,1.4-1.1,2.3v6c0.8,0.3,1.8,0.5,2.9,0.6c0,0.3,0,0.5-0.1,0.6H240c0-0.2,0-0.4,0-0.6
			c0.7-0.1,1.2-0.2,1.4-0.4c0.3-0.2,0.4-0.5,0.4-0.9v-9c-0.5,0-0.9,0-1.2,0s-0.5,0-0.7,0c0-0.2,0-0.4,0.1-0.5c1.2-0.5,2.2-0.8,3-1
			C243.2,679.2,243.2,680.2,243.2,681.5z"/>
		<path class="st1" d="M251,688.9v-9c-0.5,0-0.9,0-1.2,0s-0.5,0-0.7,0c0-0.2,0-0.4,0.1-0.5c1.1-0.4,2.2-0.7,3.2-1v11.3
			c0.6,0.3,1.2,0.4,1.9,0.5c0,0.3,0,0.5-0.1,0.6h-5c0-0.2,0-0.4,0-0.6c0.7-0.1,1.2-0.2,1.4-0.4C250.8,689.6,251,689.3,251,688.9z
			 M252.8,674.3c0,0.3-0.1,0.6-0.4,0.9c-0.2,0.2-0.5,0.4-0.9,0.4s-0.6-0.1-0.9-0.4c-0.2-0.2-0.4-0.5-0.4-0.9c0-0.3,0.1-0.6,0.4-0.8
			c0.2-0.2,0.5-0.4,0.9-0.4s0.6,0.1,0.9,0.4C252.7,673.7,252.8,674,252.8,674.3z"/>
		<path class="st1" d="M262,678.2c1.7,0,3,0.6,4,1.8c1,1.2,1.5,2.7,1.5,4.6s-0.5,3.5-1.5,4.7s-2.3,1.8-4,1.8c-1.7,0-3-0.6-4-1.8
			c-0.9-1.2-1.4-2.7-1.4-4.6c0-1.9,0.5-3.5,1.5-4.7S260.3,678.2,262,678.2z M259.1,688.7c0.7,1,1.7,1.5,3,1.5s2.3-0.5,2.9-1.4
			s1-2.2,1-3.8c0-1.8-0.4-3.3-1.1-4.3s-1.7-1.6-3-1.6c-1.3,0-2.3,0.5-3,1.5c-0.7,1-1,2.4-1,4.1C258,686.3,258.3,687.7,259.1,688.7z"
			/>
		<path class="st1" d="M280.4,682.2v7.5c0.6,0.3,1.2,0.4,1.9,0.5c0,0.2,0,0.4-0.1,0.6h-5c0-0.2,0-0.4,0-0.6c0.7-0.1,1.2-0.2,1.4-0.4
			c0.3-0.2,0.4-0.5,0.4-0.9v-6.7c0-0.9-0.2-1.7-0.7-2.1c-0.4-0.5-1.1-0.7-1.8-0.7c-1.7,0-3,0.9-3.8,2.8v7.5c0.6,0.3,1.2,0.4,1.9,0.5
			c0,0.3,0,0.5-0.1,0.6h-5c0-0.2,0-0.4,0-0.6c0.7-0.1,1.2-0.2,1.4-0.4c0.3-0.2,0.4-0.5,0.4-0.9v-9c-0.5,0-0.9,0-1.2,0s-0.5,0-0.7,0
			c0-0.2,0-0.4,0.1-0.5c1.2-0.5,2.2-0.8,3-1c0.1,0.7,0.2,1.6,0.2,2.7c0.9-1.9,2.3-2.8,4.2-2.8c1,0,1.8,0.3,2.5,1
			S280.4,680.9,280.4,682.2z"/>
		<path class="st1" d="M287.8,669.5h1.9l-0.5,4.3h-0.9L287.8,669.5z"/>
		<path class="st1" d="M299.2,690.3c1,0,1.8-0.2,2.3-0.6c0.6-0.4,0.9-1,0.9-1.6c0-0.6-0.3-1.2-1-1.7c-0.7-0.5-1.4-0.9-2.3-1.2
			s-1.6-0.8-2.3-1.4c-0.7-0.6-1-1.4-1-2.4s0.4-1.8,1.2-2.3c0.8-0.6,1.7-0.9,2.8-0.9c1.1,0,2.1,0.2,3.2,0.5c0,0.3,0,0.7,0,1.1
			s-0.1,1.1-0.2,1.8c-0.2,0-0.3,0-0.4-0.1c0-0.2,0-0.3,0-0.5c0-0.8-0.2-1.3-0.7-1.6s-1.1-0.5-1.9-0.5s-1.5,0.2-2,0.6
			c-0.5,0.4-0.8,0.9-0.8,1.6c0,0.6,0.2,1.1,0.7,1.5c0.5,0.4,1,0.8,1.7,1.1c0.7,0.3,1.3,0.6,2,0.9c0.7,0.3,1.2,0.7,1.7,1.2
			s0.7,1.1,0.7,1.8c0,1.1-0.5,2-1.4,2.6c-0.9,0.6-2,0.9-3.3,0.9c-1.3,0-2.5-0.2-3.7-0.6c0-0.4-0.1-0.9-0.1-1.5s0.1-1.1,0.2-1.6
			c0.2,0,0.3,0,0.4,0c0,0.1,0,0.3,0,0.4c0,0.8,0.3,1.5,0.9,1.9C297.4,690.1,298.2,690.3,299.2,690.3z"/>
	</g>
</g>
</svg>
